#!OML:ASF F:\VICON\USERDATA\INSTALL\rory3\rory3.ASF
:FULLY-SPECIFIED
:DEGREES
371
root -3.62879 17.9384 -0.754201 3.17437 -52.6152 -0.516106
lowerback 3.87671 0.764895 -0.478264
upperback 1.44512 0.99883 0.926502
thorax -0.715249 0.491614 1.17341
lowerneck -7.91575 -1.07698 -4.51745
upperneck 25.4289 -0.848141 -0.880161
head 9.31294 -1.04638 0.359609
rclavicle 8.19987e-016 -3.37934e-015
rhumerus -37.5096 -9.08892 -77.9691
rradius 25.1879
rwrist 1.86066
rhand -10.2029 17.0731
rfingers 7.12502
rthumb 15.7883 -12.303
lclavicle 8.19987e-016 -3.37934e-015
lhumerus -37.0721 4.93654 77.6973
lradius 20.7493
lwrist 0.828581
lhand -3.05279 29.0382
lfingers 7.12502
lthumb 22.6633 57.7275
rfemur -19.9038 1.62921 23.7637
rtibia 23.9719
rfoot -7.87808 -8.89629
rtoes 1.77427
lfemur -3.3112 2.00813 -19.6777
ltibia 48.0518
lfoot -5.65809 2.11241
ltoes -35.1549
372
root -3.72565 17.9508 -0.710102 3.20775 -52.4245 -0.558105
lowerback 3.91907 0.720311 -0.285677
upperback 1.41802 0.946767 0.920189
thorax -0.762244 0.46622 1.0605
lowerneck -7.89989 -1.05041 -4.53561
upperneck 25.3998 -0.787454 -0.962383
head 9.29883 -1.02758 0.340883
rclavicle -1.01157e-013 1.19271e-014
rhumerus -37.5384 -8.63397 -78.126
rradius 25.345
rwrist 1.56884
rhand -10.2044 17.1509
rfingers 7.12502
rthumb 15.7868 -12.2253
lclavicle -1.01157e-013 1.19271e-014
lhumerus -37.2875 5.08671 77.3859
lradius 20.4791
lwrist 0.412295
lhand -2.97456 28.922
lfingers 7.12502
lthumb 22.7384 57.6021
rfemur -19.5153 1.61022 23.8744
rtibia 24.0096
rfoot -8.27522 -9.05421
rtoes 1.53776
lfemur -4.62509 2.16434 -19.433
ltibia 50.3509
lfoot -4.49981 1.9895
ltoes -34.1823
373
root -3.81818 17.9506 -0.664199 3.21451 -52.207 -0.569197
lowerback 3.91054 0.683612 -0.0798929
upperback 1.4229 0.905271 0.907742
thorax -0.748255 0.445728 0.934371
lowerneck -7.95453 -1.03971 -4.54206
upperneck 25.4184 -0.742473 -1.05899
head 9.31516 -1.01744 0.312987
rclavicle 4.47266e-014 -3.37934e-015
rhumerus -37.5231 -8.44834 -78.1725
rradius 25.4921
rwrist 1.53433
rhand -10.2998 17.0064
rfingers 7.12502
rthumb 15.695 -12.3771
lclavicle 4.47266e-014 -3.37934e-015
lhumerus -37.4785 5.28422 77.0573
lradius 20.3134
lwrist -0.0661797
lhand -2.83105 28.8526
lfingers 7.12502
lthumb 22.8761 57.5157
rfemur -19.1551 1.537 23.9579
rtibia 24.0823
rfoot -8.65921 -9.1906
rtoes 1.75777
lfemur -6.00009 2.49502 -19.1512
ltibia 52.698
lfoot -3.39803 1.86455
ltoes -33.3045
374
root -3.90827 17.9472 -0.616161 3.13274 -52.0028 -0.46695
lowerback 3.84496 0.654776 0.0681773
upperback 1.46432 0.871146 0.876061
thorax -0.665906 0.428696 0.821491
lowerneck -8.02311 -1.03042 -4.48143
upperneck 25.3847 -0.690272 -1.23361
head 9.31498 -1.00423 0.247839
rclavicle -2.14687e-014 -4.17448e-015
rhumerus -37.4705 -8.00636 -78.347
rradius 25.7408
rwrist 1.09402
rhand -10.5035 16.6435
rfingers 7.12502
rthumb 15.4987 -12.7553
lclavicle -2.14687e-014 -4.17448e-015
lhumerus -37.6017 5.43402 76.7946
lradius 20.2491
lwrist -0.405675
lhand -2.70441 28.9846
lfingers 7.12502
lthumb 22.9976 57.6326
rfemur -18.8148 1.37376 23.9632
rtibia 24.1967
rfoot -9.05158 -9.23889
rtoes 1.8218
lfemur -7.36354 2.78419 -18.9281
ltibia 54.9951
lfoot -2.41966 1.7813
ltoes -29.8497
375
root -4.00048 17.9549 -0.572142 3.09906 -51.8816 -0.446955
lowerback 3.83841 0.640205 0.155198
upperback 1.46802 0.854957 0.909519
thorax -0.657458 0.420639 0.807803
lowerneck -7.94297 -0.997233 -4.52879
upperneck 25.3015 -0.609845 -1.35664
head 9.26995 -0.981784 0.222763
rclavicle 4.72114e-015 -8.74653e-015
rhumerus -37.4953 -7.35954 -78.5066
rradius 26.0431
rwrist 0.481213
rhand -10.5351 16.5178
rfingers 7.12502
rthumb 15.4683 -12.8834
lclavicle 4.72114e-015 -8.74653e-015
lhumerus -37.7752 5.77918 76.5401
lradius 20.1574
lwrist -0.872144
lhand -2.60025 29.0544
lfingers 7.12502
lthumb 23.0976 57.69
rfemur -18.4538 1.30171 24.0291
rtibia 24.3153
rfoot -9.52974 -9.28685
rtoes 2.46603
lfemur -8.66582 2.84945 -18.7142
ltibia 57.1465
lfoot -1.55465 1.86599
ltoes -24.3633
376
root -4.09158 17.9619 -0.533663 3.14714 -51.7906 -0.485469
lowerback 3.82699 0.669685 0.252622
upperback 1.44412 0.898206 0.934767
thorax -0.675042 0.442492 0.77714
lowerneck -7.8122 -0.978602 -4.56086
upperneck 25.2347 -0.567308 -1.4354
head 9.2216 -0.971144 0.206632
rclavicle 1.77713e-013 -7.55382e-015
rhumerus -37.562 -7.11599 -78.4991
rradius 26.2345
rwrist 0.316677
rhand -10.5696 16.7262
rfingers 7.12502
rthumb 15.435 -12.6775
lclavicle 1.77713e-013 -7.55382e-015
lhumerus -37.9433 5.86343 76.3744
lradius 20.145
lwrist -1.0806
lhand -2.52636 29.0356
lfingers 7.12502
lthumb 23.1685 57.6622
rfemur -18.1198 1.27505 24.155
rtibia 24.3559
rfoot -9.94217 -9.33764
rtoes 2.69653
lfemur -9.94905 2.83125 -18.5586
ltibia 59.0994
lfoot -0.809073 2.11068
ltoes -21.2093
377
root -4.1785 17.9654 -0.494376 3.11311 -51.6671 -0.478852
lowerback 3.86564 0.699807 0.356761
upperback 1.47476 0.941776 0.943516
thorax -0.664201 0.46424 0.725582
lowerneck -7.81308 -0.966535 -4.53644
upperneck 25.147 -0.521407 -1.56157
head 9.19034 -0.957303 0.164522
rclavicle 4.25399e-014 -1.98785e-015
rhumerus -37.4912 -6.79629 -78.539
rradius 26.3326
rwrist 0.071057
rhand -10.6157 17
rfingers 7.12502
rthumb 15.3907 -12.4071
lclavicle 4.25399e-014 -1.98785e-015
lhumerus -38.0314 5.6276 76.4151
lradius 20.331
lwrist -0.850198
lhand -2.6227 28.9404
lfingers 7.12502
lthumb 23.076 57.5787
rfemur -17.6747 1.21782 24.2387
rtibia 24.2625
rfoot -10.3841 -9.35186
rtoes 3.34813
lfemur -11.1141 2.85643 -18.4883
ltibia 60.8427
lfoot -0.342157 2.361
ltoes -20.4285
378
root -4.26366 17.9728 -0.451906 3.11189 -51.5382 -0.486298
lowerback 3.90208 0.734472 0.474043
upperback 1.48037 0.99241 0.954634
thorax -0.677511 0.489661 0.668582
lowerneck -7.83215 -0.964552 -4.56346
upperneck 25.1316 -0.502706 -1.5936
head 9.18867 -0.953216 0.160122
rclavicle -4.41302e-014 -3.18055e-015
rhumerus -37.4743 -6.55672 -78.5118
rradius 26.4565
rwrist -0.124991
rhand -10.6133 17.0684
rfingers 7.12502
rthumb 15.3929 -12.3386
lclavicle -4.41302e-014 -3.18055e-015
lhumerus -38.1594 5.48632 76.4286
lradius 20.58
lwrist -0.770401
lhand -2.79999 28.7978
lfingers 7.12502
lthumb 22.9059 57.4572
rfemur -17.2212 1.12236 24.3214
rtibia 24.1072
rfoot -10.7691 -9.36703
rtoes 3.99561
lfemur -12.2678 2.98877 -18.4204
ltibia 62.4003
lfoot -0.163535 2.29724
ltoes -20.8413
379
root -4.34737 17.9789 -0.412233 3.13158 -51.4427 -0.491755
lowerback 3.92505 0.799585 0.530064
upperback 1.45954 1.082 0.985869
thorax -0.711987 0.53446 0.664706
lowerneck -7.83604 -0.975903 -4.57674
upperneck 25.234 -0.500261 -1.65396
head 9.22578 -0.962173 0.141245
rclavicle 4.71617e-014 -9.14409e-015
rhumerus -37.5387 -6.34073 -78.4289
rradius 26.6508
rwrist -0.309267
rhand -10.6921 16.9822
rfingers 7.12502
rthumb 15.3171 -12.4305
lclavicle 4.71617e-014 -9.14409e-015
lhumerus -38.2995 5.55586 76.3917
lradius 20.8327
lwrist -0.810361
lhand -2.72551 28.8706
lfingers 7.12502
lthumb 22.9774 57.5211
rfemur -16.8222 1.00985 24.4191
rtibia 23.9639
rfoot -11.0237 -9.419
rtoes 4.0736
lfemur -13.4501 3.08948 -18.3955
ltibia 63.7973
lfoot -0.120756 2.07912
ltoes -22.1564
380
root -4.43031 17.9843 -0.373861 3.20004 -51.3916 -0.565217
lowerback 3.91876 0.870226 0.615503
upperback 1.46215 1.17936 1.03489
thorax -0.705849 0.583065 0.662841
lowerneck -7.82847 -0.971082 -4.57786
upperneck 25.2967 -0.473265 -1.73339
head 9.24634 -0.959388 0.116561
rclavicle -7.35503e-015 -1.19271e-015
rhumerus -37.5402 -6.05998 -78.3841
rradius 26.8238
rwrist -0.607028
rhand -10.8235 16.878
rfingers 7.12502
rthumb 15.1905 -12.5444
lclavicle -7.35503e-015 -1.19271e-015
lhumerus -38.3738 5.38244 76.5512
lradius 21.1078
lwrist -0.35619
lhand -2.93194 29.0059
lfingers 7.12502
lthumb 22.7793 57.681
rfemur -16.4248 1.049 24.5606
rtibia 23.8245
rfoot -11.1728 -9.57409
rtoes 2.86512
lfemur -14.6326 3.11992 -18.4044
ltibia 65.0372
lfoot -0.149649 1.90434
ltoes -24.9669
381
root -4.51113 17.9883 -0.33595 3.15148 -51.3674 -0.558414
lowerback 3.96385 0.947044 0.669691
upperback 1.49614 1.2835 1.05117
thorax -0.696109 0.634966 0.644105
lowerneck -7.8863 -0.97641 -4.5461
upperneck 25.3511 -0.459661 -1.81741
head 9.27624 -0.959844 0.0830642
rclavicle -3.81667e-014 -1.19271e-015
rhumerus -37.4756 -5.90259 -78.3034
rradius 26.9435
rwrist -0.765769
rhand -10.8895 16.76
rfingers 7.12502
rthumb 15.1269 -12.6672
lclavicle -3.81667e-014 -1.19271e-015
lhumerus -38.4111 4.98689 76.7972
lradius 21.4417
lwrist 0.367764
lhand -3.19967 28.9532
lfingers 7.12502
lthumb 22.5223 57.6597
rfemur -15.9773 1.14636 24.6269
rtibia 23.7236
rfoot -11.3832 -9.69606
rtoes 2.38871
lfemur -15.699 3.26787 -18.4984
ltibia 66.0865
lfoot -0.174547 1.54728
ltoes -29.5708
